<?xml version="1.0" encoding="utf-8"?>
<!-- Generator: Adobe Illustrator 16.0.0, SVG Export Plug-In . SVG Version: 6.00 Build 0)  -->
<!DOCTYPE svg PUBLIC "-//W3C//DTD SVG 1.1//EN" "http://www.w3.org/Graphics/SVG/1.1/DTD/svg11.dtd">
<svg version="1.1"
	 id="Layer_1" xmlns:dc="http://purl.org/dc/elements/1.1/" xmlns:cc="http://creativecommons.org/ns#" xmlns:rdf="http://www.w3.org/1999/02/22-rdf-syntax-ns#" xmlns:svg="http://www.w3.org/2000/svg" xmlns:sodipodi="http://sodipodi.sourceforge.net/DTD/sodipodi-0.dtd" xmlns:inkscape="http://www.inkscape.org/namespaces/inkscape"
	 xmlns="http://www.w3.org/2000/svg" xmlns:xlink="http://www.w3.org/1999/xlink" x="0px" y="0px" width="600px" height="600px"
	 viewBox="0 0 600 600" enable-background="new 0 0 600 600" xml:space="preserve">
<g transform="translate(0,-952.36218)">
	<path fill="#F0EAC7" d="M166.875,1018.252c-6.61,0.491-11.57,6.248-11.078,12.858c0.249,3.345,1.886,6.434,4.516,8.517
		l253.125,212.812l-253.125,212.812c-5.332,3.938-6.461,11.452-2.523,16.783s11.452,6.462,16.784,2.523
		c0.39-0.288,0.762-0.599,1.114-0.933l264-222c5.074-4.264,5.73-11.834,1.466-16.909c-0.445-0.53-0.936-1.02-1.466-1.465l-264-222
		C173.273,1019.106,170.097,1018.025,166.875,1018.252L166.875,1018.252z"/>
</g>
</svg>
