<svg xmlns="http://www.w3.org/2000/svg" xmlns:xlink="http://www.w3.org/1999/xlink" version="1.1" x="0px" y="0px" viewBox="0 0 100 100" enable-background="new 0 0 100 100" xml:space="preserve"><path fill="#fac200" d="M20.347,29.103c-0.992,2.154-2.032,6.399,0.825,12.347c0.402,0.837,1.191,1.424,2.107,1.576L47.296,47l6.07,1.005  c1.326,0.219,2.686-0.052,3.825-0.765l24.427-15.269c1.218-0.761,2.823-0.391,3.584,0.827c0.199,0.318,0.319,0.663,0.368,1.012  c0.375,1.09,0.066,2.407-1.105,3.133L59.13,52.642c-1.298,0.804-2.835,1.131-4.348,0.924l-32.422-4.428  c-0.729-0.1-1.44,0.29-1.738,0.962c-0.959,2.169-1.934,6.43,1.014,12.333c0.415,0.831,1.212,1.406,2.131,1.543l24.076,3.606  l6.085,0.911c1.329,0.199,2.685-0.094,3.813-0.823l24.19-15.642c1.078-0.697,2.478-0.493,3.32,0.419l0.012-0.017  c0.062,0.077,0.119,0.158,0.172,0.24c0.031,0.043,0.064,0.084,0.093,0.129c0.78,1.206,0.435,2.817-0.772,3.597l-18.98,12.245  l0.032,0.009l-7.161,4.533c-0.955,0.592-2.086,0.832-3.199,0.68l-0.226-0.033l-0.003,0.002l-6.125-0.897l-1.026-0.15l-1.228-0.18  l-24.406-3.574c-0.34-0.05-0.671-0.136-0.991-0.25c-0.294,0.169-0.537,0.428-0.682,0.755c-0.959,2.169-1.934,6.43,1.014,12.333  c0.415,0.831,1.212,1.406,2.131,1.543L47.98,87.02l6.085,0.911c1.329,0.199,2.685-0.094,3.813-0.823l24.19-15.642  c1.206-0.78,2.817-0.435,3.597,0.772c0.78,1.206,0.434,2.817-0.772,3.597l-18.98,12.245l0.032,0.009l-7.161,4.533  c-0.955,0.592-2.086,0.832-3.199,0.68l-0.226-0.033l-0.003,0.002l-6.125-0.897l-1.026-0.15l-1.228-0.18L22.57,88.47  c-1.033-0.151-1.995-0.61-2.772-1.307c-5.843-5.248-5.689-12.608-5.008-15.951c0.534-2.622,1.588-4.99,2.288-6.349  c0.011-0.021,0.023-0.041,0.035-0.062c-3.222-4.783-3.022-10.27-2.461-13.027c0.534-2.622,1.588-4.99,2.288-6.349  c0.116-0.225,0.263-0.43,0.433-0.613c-3.95-5.067-3.67-11.176-3.021-14.129c0.574-2.613,1.664-4.965,2.386-6.313  c0.261-0.488,0.664-0.886,1.153-1.145L48.189,7.136c0.881-0.46,1.888-0.621,2.868-0.459l32.397,5.35  c2.441,0.403,3.054,3.63,0.932,4.9L58.811,32.235c-1.31,0.784-2.852,1.087-4.362,0.858l-32.351-4.925  C21.372,28.057,20.655,28.435,20.347,29.103z"/></svg>