<svg xmlns="http://www.w3.org/2000/svg" xmlns:xlink="http://www.w3.org/1999/xlink" version="1.1" x="0px" y="0px" viewBox="0 0 100 125" enable-background="new 0 0 100 100" xml:space="preserve"><path d="M66.873,38.096H33.126c-1.609,0-2.918-1.31-2.918-2.92V23.324c0-1.609,1.309-2.918,2.918-2.918h33.747  c1.609,0,2.919,1.309,2.919,2.918v11.852C69.792,36.786,68.482,38.096,66.873,38.096z M33.126,23.309l-0.015,11.867l33.762,0.017  c0.009,0,0.018-0.008,0.018-0.017V23.324L33.126,23.309z"/><path d="M80.078,69.676c0.802,0,1.451-0.648,1.451-1.451V8.653C81.529,6.639,79.893,5,77.877,5H27.991  c-5.25,0-9.521,4.271-9.521,9.521v61.772c0,5.25,4.272,9.521,9.521,9.521h8.07c0.801,0,1.451-0.649,1.451-1.451  c0-0.803-0.65-1.451-1.451-1.451h-8.07c-3.648,0-6.618-2.971-6.618-6.619s2.97-6.618,6.618-6.618h47.985  c-1.142,1.784-1.899,4.19-1.899,6.618c0,2.43,0.759,4.833,1.899,6.619H49.267c-0.801,0-1.452,0.648-1.452,1.451  c0,0.802,0.65,1.451,1.452,1.451h30.812c0.003,0,0.004,0,0.008,0c0.005,0,0.015-0.002,0.015,0c0,0,0,0,0.002,0l0,0  c0.791-0.014,1.429-0.657,1.429-1.451c0-0.803-0.65-1.451-1.452-1.451c-0.771-0.006-3.098-2.686-3.098-6.619  C76.98,72.359,79.307,69.68,80.078,69.676z M27.991,66.771c-2.571,0-4.903,1.029-6.618,2.691V14.521c0-3.649,2.97-6.618,6.618-6.618  h49.886c0.413,0,0.75,0.336,0.75,0.75v58.121H27.991V66.771z"/><path d="M36.794,95c-0.324,0-0.651-0.073-0.944-0.214c-0.769-0.372-1.241-1.126-1.241-1.972V76.499c0-1.203,0.98-2.185,2.185-2.185  h11.739c1.205,0,2.185,0.98,2.185,2.185v16.315c0,0.832-0.485,1.604-1.234,1.968c-0.718,0.352-1.679,0.254-2.322-0.267l-4.498-3.598  l-4.505,3.604C37.776,94.83,37.29,95,36.794,95z M42.665,87.609c0.321,0,0.642,0.105,0.906,0.316l4.244,3.396V77.218H37.513v14.104  l4.246-3.396C42.023,87.716,42.344,87.609,42.665,87.609z"/></svg>