<svg xmlns="http://www.w3.org/2000/svg" xmlns:xlink="http://www.w3.org/1999/xlink" version="1.1" x="0px" y="0px" viewBox="0 0 100 100" enable-background="new 0 0 100 100" xml:space="preserve"><path fill="#f0eac7"  d="M50,8.025c7.507,0,13.613,6.105,13.613,13.613c0,7.506-6.106,13.613-13.613,13.613s-13.613-6.107-13.613-13.613  C36.387,14.131,42.493,8.025,50,8.025 M50,5c-9.187,0-16.639,7.453-16.639,16.639S40.813,38.277,50,38.277  c9.188,0,16.639-7.453,16.639-16.639S59.188,5,50,5L50,5z"/><path fill="#f0eac7" d="M50,44.233c6.432,0,12.676,1.92,17.973,5.476c-8.234,2.609-15.13,6.938-17.972,8.868c-2.819-1.916-9.724-6.253-17.975-8.868  C37.32,46.155,43.567,44.233,50,44.233 M50,41.208c-8.578,0-16.854,3.126-23.303,8.794c-0.246,0.215-0.35,0.553-0.268,0.87  c0.082,0.315,0.335,0.562,0.653,0.633c11.937,2.646,22.292,10.328,22.396,10.403c0.154,0.113,0.338,0.173,0.521,0.173  s0.367-0.06,0.521-0.173c0.104-0.075,10.459-7.758,22.396-10.403c0.318-0.071,0.57-0.317,0.652-0.633  c0.082-0.317-0.021-0.655-0.268-0.87C66.854,44.334,58.578,41.208,50,41.208L50,41.208z"/><path fill="#f0eac7" d="M80.961,62.126v-7.22c0-0.77-0.623-1.391-1.391-1.391c-13.239,0-26.191,8.405-29.57,10.766  c-3.379-2.359-16.331-10.766-29.57-10.766c-0.768,0-1.391,0.621-1.391,1.391v7.22c1.028,0.081,1.981,0.505,2.782,1.19v-6.984  c11.681,0.563,23.224,7.93,26.439,10.139v24.26c-4.744-3.071-15.371-9.092-26.439-9.57v-6.399c-0.801,0.687-1.754,1.109-2.782,1.189  v6.569c0,0.77,0.623,1.392,1.391,1.392c14.136,0,28.592,10.703,28.736,10.812c0.049,0.037,0.105,0.053,0.156,0.08  c0.046,0.028,0.088,0.053,0.136,0.071C49.633,94.949,49.813,95,49.998,95H50h0.002c0.186,0,0.366-0.051,0.542-0.126  c0.047-0.021,0.088-0.043,0.133-0.067c0.052-0.031,0.11-0.047,0.159-0.084c0.143-0.107,14.576-10.812,28.734-10.812  c0.768,0,1.391-0.622,1.391-1.392V75.95c-1.027-0.08-1.98-0.505-2.781-1.189v6.399c-11.068,0.479-21.695,6.499-26.439,9.57V66.475  c3.212-2.213,14.742-9.58,26.439-10.143v6.984C78.979,62.631,79.934,62.207,80.961,62.126z"/><path fill="#f0eac7" d="M18.69,64.234c1.754,0,3.235,2.201,3.235,4.803c0,2.559-1.512,4.804-3.235,4.804s-3.236-2.245-3.236-4.804  C15.454,66.436,16.937,64.234,18.69,64.234 M18.69,61.211c-3.461,0-6.262,3.502-6.262,7.826c0,4.32,2.801,7.829,6.262,7.829  c3.46,0,6.261-3.509,6.261-7.829C24.951,64.713,22.15,61.211,18.69,61.211L18.69,61.211z"/><path fill="#f0eac7" d="M81.311,64.234c1.754,0,3.235,2.201,3.235,4.803c0,2.559-1.513,4.804-3.235,4.804c-1.724,0-3.235-2.245-3.235-4.804  C78.074,66.436,79.557,64.234,81.311,64.234 M81.311,61.211c-3.461,0-6.262,3.502-6.262,7.826c0,4.32,2.801,7.829,6.262,7.829  s6.262-3.509,6.262-7.829C87.57,64.713,84.771,61.211,81.311,61.211L81.311,61.211z"/></svg>