<svg xmlns="http://www.w3.org/2000/svg" xmlns:xlink="http://www.w3.org/1999/xlink" version="1.1" x="0px" y="0px" viewBox="0 0 100 125" enable-background="new 0 0 100 100" xml:space="preserve"><path d="M93.085,58.749c-0.612-1.204-0.937-2.526-0.937-3.896c0-1.885,0.604-3.684,1.748-5.202L93.8,49.579l0.603-0.438  c0.647-0.472,0.791-1.38,0.318-2.027c-0.383-0.526-1.052-0.714-1.637-0.516c-0.611-1.204-0.936-2.525-0.936-3.895  c0-1.886,0.604-3.685,1.748-5.203L93.8,37.428l0.601-0.437c0.648-0.472,0.791-1.379,0.32-2.027  c-0.384-0.528-1.054-0.714-1.637-0.516c-0.613-1.205-0.938-2.527-0.938-3.896c0-1.886,0.604-3.685,1.748-5.204l-0.096-0.071  l0.6-0.437c0.43-0.312,0.652-0.829,0.588-1.354c-0.064-0.524-0.41-0.972-0.901-1.168L55.086,6.716  c-1.268-0.503-3.113-0.268-4.205,0.527L7.638,38.692c-0.118,0.086-0.217,0.189-0.303,0.304l-0.003-0.003  C5.807,41.018,5,43.421,5,45.942c0,2.17,0.6,4.248,1.737,6.076C5.601,53.846,5,55.926,5,58.096c0,2.168,0.601,4.246,1.737,6.073  C5.601,65.997,5,68.076,5,70.244c0,2.521,0.807,4.926,2.332,6.949l0.243,0.324l39.374,15.75c0.474,0.189,1.01,0.279,1.554,0.279  c0.952,0,1.932-0.279,2.654-0.806l21.62-15.72c0-0.002,0.002-0.002,0.002-0.002l21.623-15.729c0.647-0.473,0.791-1.38,0.318-2.027  C94.339,58.738,93.67,58.551,93.085,58.749z M52.588,9.59c0.164-0.119,0.533-0.246,0.959-0.246c0.262,0,0.413,0.049,0.463,0.068  L90.57,24.037L49.451,53.941c-0.165,0.119-0.535,0.248-0.96,0.248c-0.26,0-0.409-0.049-0.462-0.07L11.47,39.495L52.588,9.59z   M71.072,74.673c-0.002,0.001-0.004,0.003-0.004,0.004L49.451,90.395c-0.322,0.232-1.051,0.326-1.423,0.179L9.422,75.13  c-0.995-1.448-1.519-3.129-1.519-4.886c0-1.52,0.398-2.98,1.15-4.286l37.896,15.158c0.475,0.188,1.012,0.28,1.556,0.28  c0.953,0,1.931-0.278,2.652-0.805l21.62-15.723c0-0.001,0.002-0.001,0.002-0.002l16.666-12.122c-0.127,0.69-0.199,1.394-0.199,2.106  c0,1.965,0.496,3.856,1.436,5.557L71.072,74.673z M71.072,62.521c-0.002,0-0.004,0.002-0.004,0.002L49.451,78.245  c-0.321,0.233-1.049,0.323-1.423,0.176L9.422,62.979c-0.995-1.449-1.519-3.127-1.519-4.883c0-1.521,0.398-2.984,1.15-4.289  l37.896,15.16c0.474,0.189,1.01,0.28,1.554,0.28c0.952,0,1.932-0.279,2.654-0.806l21.622-15.726l16.666-12.121  c-0.127,0.689-0.199,1.393-0.199,2.107c0,1.965,0.496,3.854,1.436,5.554L71.072,62.521z M71.073,50.369L49.451,66.094  c-0.322,0.232-1.053,0.326-1.422,0.178L9.422,50.827C8.427,49.38,7.903,47.7,7.903,45.942c0-1.521,0.398-2.982,1.15-4.288  l37.896,15.161c0.455,0.182,0.987,0.277,1.542,0.277c0.993,0,1.964-0.293,2.666-0.804l38.288-27.845  c-0.127,0.689-0.199,1.393-0.199,2.107c0,1.965,0.497,3.855,1.438,5.556L71.073,50.369z"/><path d="M67.438,34.64c0.303,0,0.603-0.094,0.854-0.277l8.692-6.322c0.429-0.312,0.652-0.829,0.588-1.354  c-0.065-0.525-0.41-0.973-0.901-1.168l-23.709-9.483c-0.462-0.186-0.989-0.12-1.394,0.174l-8.692,6.323  c-0.428,0.311-0.652,0.828-0.587,1.353c0.065,0.525,0.41,0.973,0.901,1.169l23.708,9.482C67.072,34.605,67.255,34.64,67.438,34.64z   M52.627,19.028l20.525,8.209l-5.92,4.306l-20.525-8.209L52.627,19.028z"/></svg>