<svg enable-background="new 0 0 100 100" viewBox="0 0 100 125" xmlns="http://www.w3.org/2000/svg"><path d="m93.085 58.749c-.612-1.204-.937-2.526-.937-3.896 0-1.885.604-3.684 1.748-5.202l-.096-.072.603-.438c.647-.472.791-1.38.318-2.027-.383-.526-1.052-.714-1.637-.516-.611-1.204-.936-2.525-.936-3.895 0-1.886.604-3.685 1.748-5.203l-.096-.072.601-.437c.648-.472.791-1.379.32-2.027-.384-.528-1.054-.714-1.637-.516-.613-1.205-.938-2.527-.938-3.896 0-1.886.604-3.685 1.748-5.204l-.096-.071.6-.437c.43-.312.652-.829.588-1.354-.064-.524-.41-.972-.901-1.168l-38.999-15.602c-1.268-.503-3.113-.268-4.205.527l-43.243 31.449c-.118.086-.217.189-.303.304l-.003-.003c-1.525 2.025-2.332 4.428-2.332 6.949 0 2.17.6 4.248 1.737 6.076-1.136 1.828-1.737 3.908-1.737 6.078 0 2.168.601 4.246 1.737 6.073-1.136 1.828-1.737 3.907-1.737 6.075 0 2.521.807 4.926 2.332 6.949l.243.324 39.374 15.75c.474.189 1.01.279 1.554.279.952 0 1.932-.279 2.654-.806l21.62-15.72c0-.002.002-.002.002-.002l21.623-15.729c.647-.473.791-1.38.318-2.027-.381-.524-1.05-.711-1.635-.513zm-40.497-49.159c.164-.119.533-.246.959-.246.262 0 .413.049.463.068l36.56 14.625-41.119 29.904c-.165.119-.535.248-.96.248-.26 0-.409-.049-.462-.07l-36.559-14.624zm18.484 65.083c-.002.001-.004.003-.004.004l-21.617 15.718c-.322.232-1.051.326-1.423.179l-38.606-15.444c-.995-1.448-1.519-3.129-1.519-4.886 0-1.52.398-2.98 1.15-4.286l37.896 15.158c.475.188 1.012.28 1.556.28.953 0 1.931-.278 2.652-.805l21.62-15.723c0-.001.002-.001.002-.002l16.666-12.122c-.127.69-.199 1.394-.199 2.106 0 1.965.496 3.856 1.436 5.557zm0-12.152c-.002 0-.004.002-.004.002l-21.617 15.722c-.321.233-1.049.323-1.423.176l-38.606-15.442c-.995-1.449-1.519-3.127-1.519-4.883 0-1.521.398-2.984 1.15-4.289l37.896 15.16c.474.189 1.01.28 1.554.28.952 0 1.932-.279 2.654-.806l21.622-15.726 16.666-12.121c-.127.689-.199 1.393-.199 2.107 0 1.965.496 3.854 1.436 5.554zm.001-12.152-21.622 15.725c-.322.232-1.053.326-1.422.178l-38.607-15.445c-.995-1.447-1.519-3.127-1.519-4.885 0-1.521.398-2.982 1.15-4.288l37.896 15.161c.455.182.987.277 1.542.277.993 0 1.964-.293 2.666-.804l38.288-27.845c-.127.689-.199 1.393-.199 2.107 0 1.965.497 3.855 1.438 5.556z"/><path d="m67.438 34.64c.303 0 .603-.094.854-.277l8.692-6.322c.429-.312.652-.829.588-1.354-.065-.525-.41-.973-.901-1.168l-23.709-9.483c-.462-.186-.989-.12-1.394.174l-8.692 6.323c-.428.311-.652.828-.587 1.353s.41.973.901 1.169l23.708 9.482c.174.068.357.103.54.103zm-14.811-15.612 20.525 8.209-5.92 4.306-20.525-8.209z"/></svg>