<svg xmlns="http://www.w3.org/2000/svg" xmlns:xlink="http://www.w3.org/1999/xlink" version="1.1" x="0px" y="0px" viewBox="0 0 100 125" enable-background="new 0 0 100 100" xml:space="preserve"><path d="M94.723,47.114c-0.383-0.527-1.054-0.714-1.638-0.516c-0.612-1.205-0.937-2.528-0.937-3.896c0-1.883,0.604-3.681,1.75-5.201  L93.8,37.428L94.4,36.99c0.43-0.311,0.652-0.829,0.588-1.354c-0.064-0.524-0.41-0.972-0.901-1.168L55.089,18.871  c-1.266-0.509-3.114-0.271-4.206,0.524L7.64,50.846c-0.118,0.086-0.217,0.189-0.303,0.303l-0.004-0.002  C5.808,53.172,5,55.574,5,58.094c0,2.521,0.808,4.924,2.333,6.95l0.244,0.323l39.373,15.75c0.473,0.188,1.008,0.279,1.551,0.279  c0.953,0,1.934-0.279,2.657-0.806l21.621-15.723L94.4,49.141C95.051,48.67,95.193,47.763,94.723,47.114z M52.592,21.742  c0.162-0.119,0.531-0.247,0.956-0.247c0.259,0,0.408,0.048,0.462,0.07L90.57,36.187L49.454,66.091  c-0.167,0.12-0.538,0.249-0.963,0.249c-0.26,0-0.41-0.049-0.464-0.068L11.472,51.646L52.592,21.742z M71.074,62.521L49.453,78.242  c-0.322,0.234-1.056,0.324-1.426,0.18L9.424,62.979c-0.996-1.449-1.521-3.131-1.521-4.886c0-1.519,0.399-2.979,1.152-4.286  L46.95,68.966c0.455,0.183,0.987,0.277,1.541,0.277c0,0,0,0,0.001,0c0.991,0,1.962-0.292,2.666-0.804l38.287-27.846  c-0.129,0.69-0.2,1.394-0.2,2.107c0,1.964,0.497,3.855,1.438,5.556L71.074,62.521z"/><path d="M67.626,46.989c0.304,0,0.603-0.095,0.854-0.278l8.91-6.479c0.428-0.311,0.652-0.828,0.588-1.353  c-0.065-0.525-0.41-0.972-0.901-1.168l-24.302-9.722c-0.463-0.186-0.988-0.119-1.393,0.174l-8.911,6.479  c-0.428,0.312-0.652,0.829-0.587,1.354c0.065,0.525,0.41,0.972,0.901,1.168l24.302,9.721C67.262,46.955,67.443,46.989,67.626,46.989  z M52.441,30.982l21.115,8.447l-6.137,4.463l-21.116-8.447L52.441,30.982z"/><text x="0" y="115" fill="#000000" font-size="5px" font-weight="bold" font-family="'Helvetica Neue', Helvetica, Arial-Unicode, Arial, Sans-serif">Created by David</text><text x="0" y="120" fill="#000000" font-size="5px" font-weight="bold" font-family="'Helvetica Neue', Helvetica, Arial-Unicode, Arial, Sans-serif">from the Noun Project</text></svg>