<svg xmlns="http://www.w3.org/2000/svg" xmlns:xlink="http://www.w3.org/1999/xlink" version="1.1" x="0px" y="0px" viewBox="0 0 100 125" enable-background="new 0 0 100 100" xml:space="preserve"><path d="M39.864,40.133c4.724,0,8.566-3.842,8.566-8.564c0-4.724-3.843-8.568-8.566-8.568c-4.723,0-8.566,3.845-8.566,8.568  C31.298,36.291,35.141,40.133,39.864,40.133z M39.864,25.71c3.23,0,5.857,2.629,5.857,5.858s-2.627,5.854-5.857,5.854  c-3.229,0-5.857-2.625-5.857-5.854S36.635,25.71,39.864,25.71z"/><path d="M47.386,41.904c-0.649,0.819-0.672,2.228-0.067,4.073c0.417,1.276,1.622,3.913,2.682,3.913c1.062,0,2.265-2.637,2.683-3.913  c0.604-1.846,0.582-3.254-0.067-4.073c-0.698-0.884-1.626-1.371-2.614-1.371C49.012,40.533,48.084,41.021,47.386,41.904z"/><path d="M60.137,40.133c4.723,0,8.565-3.842,8.565-8.564c0-4.724-3.843-8.568-8.565-8.568c-4.724,0-8.568,3.845-8.568,8.568  C51.568,36.291,55.412,40.133,60.137,40.133z M60.137,25.71c3.229,0,5.855,2.629,5.855,5.858s-2.627,5.854-5.855,5.854  c-3.229,0-5.857-2.625-5.857-5.854S56.906,25.71,60.137,25.71z"/><circle cx="39.864" cy="31.566" r="3.846"/><path d="M60.137,35.412c2.123,0,3.846-1.724,3.846-3.844c0-2.124-1.723-3.846-3.846-3.846c-2.125,0-3.848,1.722-3.848,3.846  C56.289,33.688,58.012,35.412,60.137,35.412z"/><ellipse cx="40.255" cy="73.278" rx="6.25" ry="3.571"/><ellipse cx="59.745" cy="73.277" rx="6.249" ry="3.572"/><path d="M73.074,43.277c1.162-2.787,1.767-6.037,1.767-9.76c0-4.369-0.819-8.099-2.416-11.178c1.572-2.179,4.72-8.295-1.774-16.302  c-0.629-0.776-1.461-1.148-2.297-1.01c-0.508,0.083-1.438,0.429-1.961,1.818c-1.074,2.858-3.529,5.559-4.65,6.695  c-3.315-1.146-7.221-1.748-11.741-1.748c-4.521,0-8.427,0.604-11.742,1.748c-1.121-1.137-3.576-3.837-4.651-6.694  c-0.522-1.39-1.452-1.736-1.959-1.819c-0.828-0.14-1.667,0.231-2.299,1.01c-6.494,8.007-3.345,14.124-1.774,16.302  c-1.596,3.079-2.415,6.809-2.415,11.178c0,3.722,0.604,6.972,1.767,9.76c-9.983,14.179-4.228,30,0.841,37.206  C34.736,90.386,45.154,95,50,95c4.848,0,15.264-4.614,22.232-14.518C77.301,73.277,83.057,57.455,73.074,43.277z M68.868,8.471  c3.957,5.256,2.915,9.213,1.835,11.216c-1.586-2.037-3.614-3.694-6.092-4.948C65.919,13.31,67.77,11.017,68.868,8.471z   M31.136,8.479c1.098,2.543,2.947,4.833,4.253,6.261c-2.477,1.253-4.504,2.909-6.09,4.946C28.226,17.687,27.2,13.741,31.136,8.479z   M50,14.697c14.762,0,21.938,6.156,21.938,18.82c0,12.662-7.176,18.817-21.938,18.817c-14.761,0-21.937-6.155-21.937-18.817  C28.063,20.854,35.239,14.697,50,14.697z M69.859,78.813C63.84,87.365,54.295,92.098,50,92.098c-4.296,0-13.839-4.731-19.858-13.285  c-4.478-6.363-9.557-20.076-1.674-32.616c3.879,5.948,11.127,9.042,21.533,9.042c10.406,0,17.651-3.094,21.533-9.04  C79.414,58.734,74.335,72.448,69.859,78.813z"/></svg>