<svg xmlns="http://www.w3.org/2000/svg" xmlns:xlink="http://www.w3.org/1999/xlink" version="1.1" x="0px" y="0px" viewBox="0 0 100 125" enable-background="new 0 0 100 100" xml:space="preserve"><path d="M50,5C30.93,5,15.415,18.393,15.415,34.854c0,9.802,5.173,16.712,10.175,23.396c3.377,4.511,6.86,9.177,8.759,14.732v9.205  c0,3.412,2.775,6.188,6.185,6.188h0.153l1.582,3.952C42.877,93.852,44.572,95,46.212,95h7.576c1.64,0,3.335-1.148,3.942-2.672  l1.582-3.954h0.153c3.409,0,6.185-2.774,6.185-6.188v-9.203c1.898-5.558,5.383-10.224,8.76-14.733  c5.002-6.683,10.175-13.594,10.175-23.395C84.585,18.393,69.07,5,50,5z M62.748,82.188c0,1.812-1.473,3.283-3.281,3.283h-1.136  c-0.595,0-1.128,0.361-1.349,0.912l-1.948,4.868c-0.167,0.419-0.796,0.847-1.246,0.847h-7.576c-0.45,0-1.079-0.428-1.247-0.849  l-1.948-4.866c-0.22-0.551-0.754-0.912-1.348-0.912h-1.136c-1.809,0-3.281-1.473-3.281-3.283v-8.015h8.939h0.019h7.599h8.939V82.188  z M40.258,46.401c-2.05-3.686-2.451-4.714-1.599-5.476c0.548-0.49,1.059-0.729,1.56-0.729c1.089,0,2.44,1.092,3.746,2.147  c1.724,1.394,3.677,2.973,6.035,2.973c2.357,0,4.313-1.579,6.035-2.973c1.306-1.056,2.656-2.147,3.746-2.147  c0.501,0,1.012,0.238,1.56,0.729c0.853,0.762,0.451,1.79-1.599,5.476c-2.57,4.625-6.799,12.266-7.329,24.869h-4.826  C47.056,58.666,42.828,51.025,40.258,46.401z M72.087,56.51c-3.362,4.489-6.831,9.122-8.916,14.76h-7.864  c0.514-11.836,4.381-18.793,6.975-23.458c2.063-3.712,3.691-6.643,0.994-9.053c-1.09-0.973-2.266-1.466-3.493-1.466  c-2.116,0-3.872,1.42-5.571,2.793c-1.415,1.144-2.879,2.327-4.21,2.327s-2.795-1.184-4.21-2.327  c-1.699-1.373-3.455-2.793-5.571-2.793c-1.229,0-2.404,0.493-3.493,1.467c-2.698,2.409-1.068,5.34,0.994,9.052  c2.594,4.665,6.46,11.622,6.975,23.458h-7.865c-2.085-5.638-5.554-10.271-8.914-14.76c-4.936-6.593-9.598-12.821-9.598-21.656  c0-14.86,14.213-26.95,31.683-26.95c17.471,0,31.684,12.09,31.684,26.95C81.686,43.689,77.023,49.917,72.087,56.51z"/><text x="0" y="115" fill="#000000" font-size="5px" font-weight="bold" font-family="'Helvetica Neue', Helvetica, Arial-Unicode, Arial, Sans-serif">Created by David</text><text x="0" y="120" fill="#000000" font-size="5px" font-weight="bold" font-family="'Helvetica Neue', Helvetica, Arial-Unicode, Arial, Sans-serif">from the Noun Project</text></svg>