<svg xmlns="http://www.w3.org/2000/svg" xmlns:xlink="http://www.w3.org/1999/xlink" version="1.1" x="0px" y="0px" viewBox="0 0 100 125" enable-background="new 0 0 100 100" xml:space="preserve"><path d="M53.337,42.643c-1.108,1.107-1.11,2.909,0,4.021c1.11,1.109,2.911,1.109,4.021,0c1.113-1.111,1.11-2.909,0-4.021  C56.248,41.531,54.447,41.529,53.337,42.643z"/><path d="M94.448,29.813c-0.585-0.698-1.546-0.976-2.531-0.73l-28,6.998l7.001-28c0.203-0.819,0.061-1.598-0.404-2.192  c-0.539-0.689-1.432-1.021-2.431-0.841l-0.133,0.02c-4.728,0.716-7.938,3.097-9.041,6.706l-8.45,27.673l-15.155,3.788  c-0.539-3.085-2.008-5.933-4.229-8.155c-2.885-2.885-6.721-4.474-10.801-4.474s-7.915,1.589-10.8,4.474  C6.589,37.966,5,41.801,4.999,45.881c0,4.079,1.589,7.914,4.475,10.799c2.885,2.885,6.722,4.475,10.803,4.475  c1.734,0,3.439-0.291,5.013-0.846l20.734-6.33L39.71,74.65c-1.938,5.514-0.522,11.744,3.608,15.873  c2.886,2.888,6.722,4.478,10.801,4.478c4.08,0,7.916-1.59,10.801-4.478c2.885-2.883,4.473-6.719,4.473-10.799  s-1.588-7.916-4.473-10.799c-2.225-2.223-5.072-3.691-8.156-4.23l3.789-15.154l27.674-8.451c3.604-1.101,5.984-4.31,6.705-9.034  l0.021-0.137C95.094,31.119,94.916,30.371,94.448,29.813z M87.377,38.313l-28.458,8.69c-0.485,0.148-0.858,0.542-0.983,1.036  l-4.389,17.55c-0.105,0.418-0.018,0.862,0.237,1.21c0.255,0.35,0.651,0.564,1.083,0.592c3.027,0.186,5.869,1.459,8,3.588  c2.336,2.336,3.621,5.441,3.621,8.746s-1.285,6.41-3.621,8.748c-2.338,2.336-5.443,3.625-8.748,3.625s-6.411-1.289-8.748-3.625  c-3.346-3.347-4.493-8.394-2.903-12.916l7.129-23.341c0.156-0.513,0.018-1.071-0.362-1.45c-0.275-0.275-0.647-0.426-1.026-0.426  c-0.142,0-0.284,0.021-0.424,0.063l-23.4,7.146c-1.32,0.465-2.702,0.699-4.107,0.699c-3.306,0-6.413-1.287-8.75-3.624  c-2.338-2.335-3.624-5.441-3.624-8.745c0.001-3.305,1.287-6.411,3.624-8.748c2.337-2.336,5.443-3.623,8.747-3.623  c3.305,0,6.411,1.287,8.748,3.623c2.129,2.129,3.401,4.97,3.586,7.998c0.026,0.432,0.242,0.828,0.591,1.083  c0.348,0.255,0.789,0.344,1.209,0.237l17.552-4.387c0.494-0.124,0.889-0.497,1.037-0.983l8.689-28.458  c0.916-2.998,3.815-4.167,6.256-4.61l-7.428,29.711c-0.125,0.495,0.021,1.019,0.381,1.379c0.359,0.361,0.887,0.507,1.379,0.382  l29.713-7.428C91.375,35.418,89.788,37.577,87.377,38.313z"/><path d="M20.273,36.929c-2.394,0-4.644,0.931-6.333,2.62c-3.49,3.491-3.49,9.173,0,12.663c1.663,1.664,3.979,2.618,6.353,2.618  c1.015,0,2.01-0.169,2.96-0.504c1.269-0.444,2.396-1.155,3.353-2.114c1.689-1.688,2.62-3.938,2.62-6.331  c0-2.395-0.931-4.644-2.62-6.332C24.916,37.859,22.667,36.929,20.273,36.929z M24.552,50.161c-0.646,0.646-1.406,1.127-2.26,1.427  c-2.146,0.752-4.699,0.173-6.299-1.428c-2.358-2.36-2.358-6.199,0-8.559c1.142-1.141,2.661-1.77,4.28-1.77s3.139,0.629,4.279,1.77  c1.142,1.142,1.77,2.661,1.77,4.279C26.322,47.498,25.694,49.019,24.552,50.161z"/><path d="M45.673,76.745c-1.137,3.235-0.308,6.892,2.113,9.312c1.689,1.689,3.938,2.62,6.332,2.62c2.396,0,4.644-0.931,6.332-2.618  c1.69-1.688,2.62-3.938,2.62-6.332c0-2.395-0.93-4.644-2.62-6.332c-1.688-1.688-3.937-2.619-6.332-2.619  c-2.394,0-4.643,0.931-6.332,2.619C46.824,74.355,46.114,75.482,45.673,76.745z M48.412,77.705c0.297-0.85,0.777-1.607,1.426-2.258  c1.143-1.141,2.662-1.77,4.28-1.77s3.139,0.629,4.278,1.771c1.143,1.14,1.771,2.657,1.771,4.276s-0.629,3.139-1.771,4.278  c-1.141,1.142-2.66,1.771-4.278,1.771s-3.138-0.629-4.28-1.771C48.202,82.368,47.642,79.896,48.412,77.705z"/></svg>